<?xml version="1.0" standalone="no"?>
<!DOCTYPE svg PUBLIC "-//W3C//DTD SVG 20010904//EN"
 "http://www.w3.org/TR/2001/REC-SVG-20010904/DTD/svg10.dtd">
<svg version="1.0" xmlns="http://www.w3.org/2000/svg"
 width="528.000000pt" height="463.000000pt" viewBox="0 0 528.000000 463.000000"
 preserveAspectRatio="xMidYMid meet">

<g transform="translate(0.000000,463.000000) scale(0.100000,-0.100000)"
fill="#000000" stroke="none">
<path d="M1124 4400 c-101 -20 -239 -101 -283 -166 -91 -132 -55 -284 87 -367
31 -18 339 -185 685 -371 345 -186 627 -341 627 -345 0 -3 -204 -123 -452
-266 -249 -143 -473 -272 -498 -287 l-46 -26 -265 244 c-159 147 -282 253
-309 266 -233 113 -483 -134 -371 -367 25 -52 84 -114 427 -455 276 -274 416
-405 456 -428 98 -58 206 -75 316 -52 58 13 72 21 852 472 543 314 1452 838
1945 1123 333 192 409 237 451 266 123 85 190 246 164 396 -31 182 -170 318
-352 346 -56 9 -81 8 -141 -7 -82 -19 -64 -9 -669 -359 -235 -136 -437 -252
-450 -258 -21 -9 -165 36 -989 310 -530 176 -988 325 -1018 331 -61 11 -108
11 -167 0z"/>
<path d="M2980 2125 c-212 -123 -388 -225 -392 -227 -4 -2 -8 -95 -9 -208 -4
-239 2 -262 82 -334 81 -73 177 -83 296 -31 116 52 220 161 263 277 15 38 160
715 160 744 0 10 -39 -12 -400 -221z"/>
<path d="M355 616 c-65 -21 -101 -43 -138 -87 -117 -136 -76 -338 84 -418 l62
-31 2297 0 2297 0 60 30 c68 34 106 77 134 151 50 131 -14 282 -143 340 l-53
24 -2280 2 c-1819 1 -2288 -1 -2320 -11z"/>
</g>
</svg>
