<?xml version="1.0" standalone="no"?>
<!DOCTYPE svg PUBLIC "-//W3C//DTD SVG 20010904//EN"
 "http://www.w3.org/TR/2001/REC-SVG-20010904/DTD/svg10.dtd">
<svg version="1.0" xmlns="http://www.w3.org/2000/svg"
 width="744.000000pt" height="273.000000pt" viewBox="0 0 744.000000 273.000000"
 preserveAspectRatio="xMidYMid meet">
<metadata>
Created by potrace 1.16, written by Peter Selinger 2001-2019
</metadata>
<g transform="translate(0.000000,273.000000) scale(0.100000,-0.100000)"
fill="#FFFFFF" stroke="none">
<path class="change" d="M2391 2330 c-101 -36 -193 -99 -402 -270 -57 -47 -145 -118 -196
-158 l-92 -73 -238 -48 c-328 -67 -579 -126 -639 -149 -62 -23 -147 -80 -139
-93 4 -5 136 -9 321 -9 195 0 313 -4 309 -9 -9 -15 -345 -275 -400 -310 -149
-95 -355 -94 -510 2 -77 47 -146 49 -232 7 l-66 -33 54 -51 c30 -28 92 -83
139 -122 193 -160 238 -183 365 -191 132 -9 353 44 465 110 84 50 428 313 746
571 287 233 786 649 803 669 10 13 11 24 2 48 -15 45 -57 96 -91 114 -40 21
-134 18 -199 -5z"/>
<path  class="change" d="M3025 2106 c-46 -20 -67 -51 -72 -103 -6 -63 25 -112 84 -132 35 -13
46 -13 79 0 70 27 104 113 71 179 -16 32 -74 70 -106 70 -14 -1 -39 -7 -56
-14z"/>
<path  class="change" d="M2484 1881 c-106 -88 -195 -164 -198 -170 -4 -6 1 -11 12 -11 10 0
28 -10 40 -23 21 -22 21 -31 24 -394 3 -358 4 -373 24 -400 31 -42 80 -63 148
-63 85 0 134 18 186 69 l45 44 -27 9 c-16 6 -31 21 -37 40 -7 21 -11 203 -11
544 0 283 -3 514 -7 514 -5 0 -94 -72 -199 -159z"/>
<path  class="change" d="M4396 1719 c-50 -12 -99 -43 -120 -74 -20 -30 -21 -55 -3 -55 8 0 21
-8 30 -18 15 -17 17 -72 17 -587 l0 -568 61 6 c75 7 160 47 195 93 44 57 53
98 54 242 l0 132 53 -29 c140 -79 330 -56 440 53 86 86 127 201 127 351 0 266
-154 459 -365 458 -83 -1 -139 -20 -208 -69 -29 -21 -53 -32 -55 -26 -7 23
-45 63 -71 76 -37 20 -109 26 -155 15z m471 -248 c56 -26 85 -81 91 -177 8
-133 -40 -228 -125 -243 -45 -8 -93 0 -127 22 -34 23 -67 97 -73 166 -17 182
96 294 234 232z"/>
<path  class="change" d="M2965 1706 c-38 -19 -56 -34 -78 -66 -20 -29 -22 -50 -4 -50 8 0 22
-9 33 -21 18 -20 19 -44 24 -343 4 -285 7 -325 23 -349 34 -53 115 -75 205
-56 46 9 66 20 100 54 49 49 52 62 17 75 -14 5 -30 21 -35 35 -6 15 -10 153
-10 323 0 327 -2 342 -63 386 -37 27 -166 34 -212 12z"/>
<path class="change" d="M3485 1701 c-41 -18 -95 -72 -95 -94 0 -7 10 -17 23 -22 41 -18 46
-61 46 -383 l1 -302 33 -35 c26 -29 44 -38 95 -47 87 -16 156 6 207 64 19 23
35 44 35 47 -1 3 -15 15 -33 26 l-32 20 -3 175 c-3 188 3 218 45 246 36 23
132 29 214 14 92 -18 117 -9 147 51 31 62 38 134 19 181 -23 55 -64 73 -167
73 -100 0 -145 -19 -216 -91 -37 -37 -46 -41 -50 -27 -19 62 -37 85 -77 103
-54 25 -139 25 -192 1z"/>
<path class="change" d="M5604 1706 c-98 -23 -184 -73 -184 -108 0 -47 88 -128 138 -128 13 0
39 12 59 27 29 22 49 28 102 31 56 3 71 0 101 -20 41 -28 70 -80 70 -127 0
-30 -2 -33 -22 -27 -116 33 -163 39 -235 28 -178 -28 -287 -139 -287 -292 0
-85 16 -129 66 -180 102 -106 275 -128 421 -54 l50 25 26 -24 c74 -69 216 -62
292 14 45 45 49 66 15 79 -13 5 -28 15 -32 22 -4 7 -11 132 -14 278 -5 246 -7
268 -27 306 -30 57 -90 108 -159 134 -75 29 -283 38 -380 16z m237 -531 c42
-22 49 -29 49 -56 0 -35 -35 -73 -95 -100 -94 -44 -175 -5 -175 83 1 51 15 72
61 93 43 19 95 12 160 -20z"/>
<path class="change" d="M6366 1712 c-11 -18 -18 -121 -12 -166 l7 -46 190 -2 190 -3 -108
-115 c-224 -240 -279 -303 -296 -342 -25 -54 -16 -103 28 -144 57 -53 97 -59
425 -59 l295 0 8 53 c5 28 5 76 0 105 l-8 52 -193 3 c-107 1 -192 6 -190 11 2
5 94 107 205 226 217 233 229 252 202 318 -18 47 -38 67 -89 91 -42 20 -65 21
-346 24 -182 2 -304 0 -308 -6z"/>
<path class="change" d="M2046 1470 c-106 -32 -130 -178 -40 -249 36 -28 114 -29 159 -1 32
20 65 80 65 117 0 9 -10 37 -21 61 -16 33 -32 49 -63 63 -45 20 -57 21 -100 9z"/>
</g>
</svg>
