<?xml version="1.0" standalone="no"?>
<!DOCTYPE svg PUBLIC "-//W3C//DTD SVG 20010904//EN"
 "http://www.w3.org/TR/2001/REC-SVG-20010904/DTD/svg10.dtd">
<svg version="1.0" xmlns="http://www.w3.org/2000/svg"
 width="138.000000pt" height="125.000000pt" viewBox="0 0 138.000000 125.000000"
 preserveAspectRatio="xMidYMid meet">

<g transform="translate(0.000000,125.000000) scale(0.100000,-0.100000)"
fill="#000000" stroke="none">
<path d="M615 1154 c-101 -16 -244 -89 -309 -158 -49 -52 -103 -143 -127 -214
-32 -94 -32 -230 0 -324 25 -75 87 -177 135 -222 52 -49 143 -103 214 -127 94
-32 230 -32 324 0 71 24 162 78 214 127 48 45 110 147 135 222 32 93 32 230 0
324 -23 70 -78 162 -127 214 -44 47 -147 110 -217 133 -62 21 -186 33 -242 25z
m115 -174 c18 -18 20 -34 20 -177 l1 -158 104 -79 c90 -68 105 -83 105 -107 0
-40 -41 -67 -77 -50 -38 17 -231 169 -243 191 -6 10 -10 95 -10 189 0 158 2
173 20 191 11 11 29 20 40 20 11 0 29 -9 40 -20z"/>
</g>
</svg>
