<?xml version="1.0" standalone="no"?>
<!DOCTYPE svg PUBLIC "-//W3C//DTD SVG 20010904//EN"
 "http://www.w3.org/TR/2001/REC-SVG-20010904/DTD/svg10.dtd">
<svg version="1.0" xmlns="http://www.w3.org/2000/svg"
 width="510.000000pt" height="490.000000pt" viewBox="0 0 510.000000 490.000000"
 preserveAspectRatio="xMidYMid meet">

<g transform="translate(0.000000,490.000000) scale(0.100000,-0.100000)"
fill="#000000" stroke="none">
<path d="M564 4390 c-72 -15 -168 -60 -208 -98 -21 -20 -55 -71 -75 -112 l-36
-75 0 -190 c0 -199 5 -235 67 -470 11 -44 33 -132 49 -195 44 -180 67 -268 94
-360 14 -47 36 -130 50 -185 39 -154 101 -387 147 -555 25 -92 72 -275 102
-395 13 -49 32 -119 43 -155 12 -36 27 -96 33 -135 18 -100 77 -210 150 -278
l59 -54 0 -212 c1 -124 -3 -220 -9 -231 -7 -12 -26 -21 -57 -26 -58 -9 -127
-59 -168 -123 -26 -41 -30 -55 -30 -122 0 -70 3 -80 36 -130 27 -40 50 -61 90
-82 l54 -27 1453 0 c1282 0 1457 2 1489 15 59 25 101 62 133 118 25 43 30 63
30 118 0 57 -4 72 -31 112 -46 70 -109 108 -194 118 -38 4 -266 8 -505 9 -246
0 -441 4 -450 9 -12 8 -14 44 -12 208 1 108 6 201 10 205 4 4 203 8 442 10
l435 3 76 33 c93 40 146 92 191 187 30 64 33 78 33 165 0 168 -61 268 -204
338 l-76 36 -497 6 c-435 4 -499 7 -513 21 -9 8 -24 56 -34 106 -11 50 -22
100 -25 110 -3 11 0 28 8 39 14 18 32 19 333 24 l318 5 46 32 c26 18 62 56 80
85 32 49 34 58 34 138 0 81 -1 87 -33 126 -18 23 -57 57 -85 75 l-52 34 -403
3 -402 3 -14 22 c-12 21 -29 78 -76 262 -20 80 -76 283 -106 385 -13 44 -18
126 -23 410 l-6 355 -33 76 c-40 93 -78 131 -179 178 l-78 36 -715 2 c-393 0
-733 -3 -756 -7z m1798 -3296 c4 -3 8 -97 8 -209 0 -202 0 -204 -22 -211 -12
-4 -195 -7 -406 -7 -365 -1 -385 0 -398 18 -11 14 -14 62 -14 204 0 102 4 192
8 198 6 9 56 14 167 16 189 5 645 -2 657 -9z"/>
</g>
</svg>
