<?xml version="1.0" standalone="no"?>
<!DOCTYPE svg PUBLIC "-//W3C//DTD SVG 20010904//EN"
 "http://www.w3.org/TR/2001/REC-SVG-20010904/DTD/svg10.dtd">
<svg version="1.0" xmlns="http://www.w3.org/2000/svg"
 width="92.000000pt" height="122.000000pt" viewBox="0 0 92.000000 122.000000"
 preserveAspectRatio="xMidYMid meet">

<g transform="translate(0.000000,122.000000) scale(0.100000,-0.100000)"
fill="#000000" stroke="none">
<path d="M145 1136 c-16 -7 -44 -28 -62 -46 -64 -65 -63 -61 -63 -472 0 -412
1 -419 66 -480 57 -53 89 -58 411 -58 320 0 337 3 362 57 7 16 11 175 11 487
l0 464 -29 31 -29 31 -319 0 c-240 -1 -325 -4 -348 -14z m325 -146 c22 -12 55
-65 64 -102 l6 -28 -95 0 -95 0 6 28 c13 53 57 111 87 112 5 0 17 -4 27 -10z
m-150 -70 l-19 -55 -46 -3 -46 -3 17 27 c15 23 105 96 111 91 1 -1 -7 -27 -17
-57z m318 -4 c13 -12 28 -29 33 -38 9 -16 5 -18 -33 -18 l-43 0 -22 60 -22 61
32 -22 c18 -12 43 -32 55 -43z m-348 -191 l0 -85 -54 0 -54 0 -7 41 c-4 22 -4
60 0 85 l6 44 55 0 54 0 0 -85z m262 43 c2 -24 1 -62 -1 -85 l-3 -43 -103 0
-103 0 -4 39 c-2 21 -2 60 0 85 l4 46 103 0 104 0 3 -42z m163 1 c4 -22 4 -60
0 -85 l-6 -44 -55 0 -54 0 0 85 0 85 54 0 54 0 7 -41z m-396 -239 c12 -38 15
-58 8 -54 -34 19 -78 57 -97 84 l-21 30 44 0 45 0 21 -60z m215 33 c-9 -40
-50 -100 -73 -108 -11 -3 -29 -1 -40 4 -23 13 -56 65 -65 104 l-6 27 95 0 95
0 -6 -27z m137 10 c-12 -22 -57 -65 -93 -88 l-27 -17 20 61 21 61 44 0 c40 0
44 -2 35 -17z m99 -333 l0 -60 -303 0 c-340 0 -351 2 -345 63 5 54 21 56 350
57 l298 0 0 -60z"/>
</g>
</svg>
